<svg width="684" height="368" viewBox="0 0 684 368" fill="none" xmlns="http://www.w3.org/2000/svg">
<path d="M684 0H0V176H684V0Z" fill="#D2E3EE"/>
<path d="M188 6H166V84H188V6Z" fill="white"/>
<path d="M188 88H166V166H188V88Z" fill="white"/>
<path d="M214 6H192V84H214V6Z" fill="white"/>
<path d="M214 88H192V166H214V88Z" fill="white"/>
<path d="M678 6H576V84H678V6Z" fill="white"/>
<path d="M678 88H576V166H678V88Z" fill="white"/>
<path d="M586.5 6H586V84H586.5H587V6H586.5Z" fill="#E5E6EB"/>
<path d="M667.5 6H667V84H667.5H668V6H667.5Z" fill="#E5E6EB"/>
<path d="M586.5 88H586V166H586.5H587V88H586.5Z" fill="#E5E6EB"/>
<path d="M667.5 88H667V166H667.5H668V88H667.5Z" fill="#E5E6EB"/>
<path d="M607 166H647V176H607V166Z" fill="white"/>
<path d="M648.247 77.0498H605V96.4364H648.247V77.0498Z" fill="white"/>
<path d="M302 24V6L278 6V24L302 24Z" fill="white"/>
<path d="M302 106V88H278V106H302Z" fill="white"/>
<path d="M388 32V6L348 6V32H388Z" fill="white"/>
<path d="M388 84V58H348V84H388Z" fill="white"/>
<path d="M388 112V88H348V112H388Z" fill="white"/>
<path d="M388 166V140H348V166H388Z" fill="white"/>
<path d="M438 22V6L388 6V22L438 22Z" fill="white"/>
<path d="M438 84V65H388V84H438Z" fill="white"/>
<path d="M438 105V88H388V105H438Z" fill="white"/>
<path d="M356.421 158.076V146.146H323.116V158.076H356.421Z" fill="white"/>
<path d="M438 172V6L392 6V172H438Z" fill="white"/>
<path d="M551 54V36L344 36V54L551 54Z" fill="white"/>
<path d="M550 136V116L344 116V136H550Z" fill="white"/>
<path d="M110 6H132V84H110V6Z" fill="white"/>
<path d="M548 6H570V84H548V6Z" fill="white"/>
<path d="M110 88H132V166H110V88Z" fill="white"/>
<path d="M548 88H570V166H548V88Z" fill="white"/>
<path d="M84 6H106V84H84V6Z" fill="white"/>
<path d="M522 6H544V84H522V6Z" fill="white"/>
<path d="M84 88H106V166H84V88Z" fill="white"/>
<path d="M522 88H544V166H522V88Z" fill="white"/>
<path d="M58 6H80V84H58V6Z" fill="white"/>
<path d="M496 6H518V84H496V6Z" fill="white"/>
<path d="M58 88H80V166H58V88Z" fill="white"/>
<path d="M496 88H518V166H496V88Z" fill="white"/>
<path d="M32 6H54V84H32V6Z" fill="white"/>
<path d="M470 6H492V84H470V6Z" fill="white"/>
<path d="M32 88H54V166H32V88Z" fill="white"/>
<path d="M470 88H492V166H470V88Z" fill="white"/>
<path d="M6 6H28V84H6V6Z" fill="white"/>
<path d="M444 6H466V84H444V6Z" fill="white"/>
<path d="M6 88H28V166H6V88Z" fill="white"/>
<path d="M444 88H466V166H444V88Z" fill="white"/>
<path d="M6 54L6 30L213 30L213 54L6 54Z" fill="white"/>
<path d="M444 54L444 30L570 30L570 54L444 54Z" fill="white"/>
<path d="M6 136L6 112L213 112L213 136L6 136Z" fill="white"/>
<path d="M444 136L444 112L570 112L570 136L444 136Z" fill="white"/>
<path d="M536 176V172L33 172V176L536 176Z" fill="white"/>
<path d="M248 84V6L220 6V84H248Z" fill="white"/>
<path d="M248 166V88H220V166H248Z" fill="white"/>
<path d="M344 166V88H302V166H344Z" fill="white"/>
<path d="M344 84V6L302 6V84H344Z" fill="white"/>
<path d="M302 44V26L278 26V44H302Z" fill="white"/>
<path d="M302 126V108H278V126H302Z" fill="white"/>
<path d="M302 64V46H278V64H302Z" fill="white"/>
<path d="M302 146V128H278V146H302Z" fill="white"/>
<path d="M302 84V66H278V84H302Z" fill="white"/>
<path d="M302 166V148H278V166H302Z" fill="white"/>
<path d="M272 24V6L248 6V24H272Z" fill="white"/>
<path d="M272 106V88H248V106H272Z" fill="white"/>
<path d="M272 44V26H248V44H272Z" fill="white"/>
<path d="M272 126V108H248V126H272Z" fill="white"/>
<path d="M272 64V46H248V64H272Z" fill="white"/>
<path d="M272 146V128H248V146H272Z" fill="white"/>
<path d="M272 84V66H248V84H272Z" fill="white"/>
<path d="M272 166V148H248V166H272Z" fill="white"/>
<path d="M160 6H138V172H160V6Z" fill="white"/>
<path d="M684 368H0V192H684V368Z" fill="#D2E3EE"/>
<path d="M188 362H166V284H188V362Z" fill="white"/>
<path d="M188 280H166V202H188V280Z" fill="white"/>
<path d="M214 362H192V284H214V362Z" fill="white"/>
<path d="M214 280H192V202H214V280Z" fill="white"/>
<path d="M678 362H576V284H678V362Z" fill="white"/>
<path d="M678 280H576V202H678V280Z" fill="white"/>
<path d="M586.5 362H586V284H586.5H587V362H586.5Z" fill="#E5E6EB"/>
<path d="M667.5 362H667V284H667.5H668V362H667.5Z" fill="#E5E6EB"/>
<path d="M586.5 280H586V202H586.5H587V280H586.5Z" fill="#E5E6EB"/>
<path d="M667.5 280H667V202H667.5H668V280H667.5Z" fill="#E5E6EB"/>
<path d="M607 202H647V192H607V202Z" fill="white"/>
<path d="M638.765 290.95H595.518V271.564H638.765V290.95Z" fill="white"/>
<path d="M302 344V362H278V344H302Z" fill="white"/>
<path d="M302 262V280H278V262H302Z" fill="white"/>
<path d="M388 336V362H348V336H388Z" fill="white"/>
<path d="M388 284V310H348V284H388Z" fill="white"/>
<path d="M388 256V280H348V256H388Z" fill="white"/>
<path d="M388 202V228H348V202H388Z" fill="white"/>
<path d="M438 346V362H388V346H438Z" fill="white"/>
<path d="M438 284V303H388V284H438Z" fill="white"/>
<path d="M438 263V280H388V263H438Z" fill="white"/>
<path d="M356.421 209.924V221.854H323.116V209.924H356.421Z" fill="white"/>
<path d="M438 196V362H392V196H438Z" fill="white"/>
<path d="M551 314V332H344V314H551Z" fill="white"/>
<path d="M550 232V252H344V232H550Z" fill="white"/>
<path d="M110 362H132V284H110V362Z" fill="white"/>
<path d="M548 362H570V284H548V362Z" fill="white"/>
<path d="M110 280H132V202H110V280Z" fill="white"/>
<path d="M548 280H570V202H548V280Z" fill="white"/>
<path d="M84 362H106V284H84V362Z" fill="white"/>
<path d="M522 362H544V284H522V362Z" fill="white"/>
<path d="M84 280H106V202H84V280Z" fill="white"/>
<path d="M522 280H544V202H522V280Z" fill="white"/>
<path d="M58 362H80V284H58V362Z" fill="white"/>
<path d="M496 362H518V284H496V362Z" fill="white"/>
<path d="M58 280H80V202H58V280Z" fill="white"/>
<path d="M496 280H518V202H496V280Z" fill="white"/>
<path d="M32 362H54V284H32V362Z" fill="white"/>
<path d="M470 362H492V284H470V362Z" fill="white"/>
<path d="M32 280H54V202H32V280Z" fill="white"/>
<path d="M470 280H492V202H470V280Z" fill="white"/>
<path d="M6 362H28V284H6V362Z" fill="white"/>
<path d="M444 362H466V284H444V362Z" fill="white"/>
<path d="M6 280H28V202H6V280Z" fill="white"/>
<path d="M444 280H466V202H444V280Z" fill="white"/>
<path d="M6 314L6 338L213 338L213 314L6 314Z" fill="white"/>
<path d="M444 314L444 338L570 338L570 314L444 314Z" fill="white"/>
<path d="M6 232L6 256L213 256L213 232L6 232Z" fill="white"/>
<path d="M444 232L444 256L570 256L570 232L444 232Z" fill="white"/>
<path d="M536 192V196L33 196V192L536 192Z" fill="white"/>
<path d="M248 284V362H220V284H248Z" fill="white"/>
<path d="M248 202V280H220V202H248Z" fill="white"/>
<path d="M344 202V280H302V202H344Z" fill="white"/>
<path d="M344 284V362H302V284H344Z" fill="white"/>
<path d="M302 324V342H278V324H302Z" fill="white"/>
<path d="M302 242V260H278V242H302Z" fill="white"/>
<path d="M302 304V322H278V304H302Z" fill="white"/>
<path d="M302 222V240H278V222H302Z" fill="white"/>
<path d="M302 284V302H278V284H302Z" fill="white"/>
<path d="M302 202V220H278V202H302Z" fill="white"/>
<path d="M272 344V362H248V344H272Z" fill="white"/>
<path d="M272 262V280H248V262H272Z" fill="white"/>
<path d="M272 324V342H248V324H272Z" fill="white"/>
<path d="M272 242V260H248V242H272Z" fill="white"/>
<path d="M272 304V322H248V304H272Z" fill="white"/>
<path d="M272 222V240H248V222H272Z" fill="white"/>
<path d="M272 284V302H248V284H272Z" fill="white"/>
<path d="M272 202V220H248V202H272Z" fill="white"/>
<path d="M160 362H138V196H160V362Z" fill="white"/>
</svg>
