<?xml version="1.0" standalone="no"?><!DOCTYPE svg PUBLIC "-//W3C//DTD SVG 1.1//EN" "http://www.w3.org/Graphics/SVG/1.1/DTD/svg11.dtd"><svg t="1732764579924" class="icon" viewBox="0 0 1259 1024" version="1.1" xmlns="http://www.w3.org/2000/svg" p-id="19494" xmlns:xlink="http://www.w3.org/1999/xlink" width="245.8984375" height="200"><path d="M291.772805 370.67132A370.671152 370.671152 0 1 0 662.443957 0.000168a370.671152 370.671152 0 0 0-370.671152 370.671152z" fill="#FFA448" p-id="19495"></path><path d="M663.098645 0.000168a360.330433 360.330433 0 0 1 237.165076 88.852969c80.224511 133.170339 38.274092 324.742242-104.078671 446.061042-138.44142 117.961423-324.809389 129.460438-440.907469 35.00065a373.189185 373.189185 0 0 1-57.0754-199.226722A367.901317 367.901317 0 0 1 663.098645 0.000168z" fill="#FFBF40" p-id="19496"></path><path d="M665.734186 0.000168h3.357376a156.940564 156.940564 0 0 1 84.253364 50.931401c70.857431 84.438019 33.775208 232.229732-82.843265 330.063684s-268.59012 108.728638-339.447551 24.290619a153.801417 153.801417 0 0 1-33.724847-75.742414A370.7383 370.7383 0 0 1 665.734186 0.000168z" fill="#FFD44E" p-id="19497"></path><path d="M433.856978 107.771953c-48.2455 40.489961-60.013105 105.908442-26.271471 146.045878s100.217688 39.986354 148.463189-0.503606 60.013105-105.908442 26.271471-146.045878-100.200902-40.003141-148.463189 0.503606z" fill="#FFE174" p-id="19498"></path><path d="M336.778437 1023.966426V758.465093h368.42171a292.511427 292.511427 0 0 1-0.235017-11.549375 276.983561 276.983561 0 1 1 311.631687 274.8852v2.131934z" fill="#D9E2FC" p-id="19499"></path><path d="M0.050361 654.638224a369.311415 369.311415 0 1 0 369.311415-369.311414A369.311415 369.311415 0 0 0 0 654.638224z" fill="#F2F5FF" p-id="19500"></path></svg>