<?xml version="1.0" standalone="no"?><!DOCTYPE svg PUBLIC "-//W3C//DTD SVG 1.1//EN" "http://www.w3.org/Graphics/SVG/1.1/DTD/svg11.dtd"><svg t="1732538674382" class="icon" viewBox="0 0 1649 1024" version="1.1" xmlns="http://www.w3.org/2000/svg" p-id="33979" xmlns:xlink="http://www.w3.org/1999/xlink" width="322.0703125" height="200"><path d="M1126.982067 0.097542a510.250846 510.250846 0 0 0-374.624384 162.440864 273.00169 273.00169 0 0 0-479.355993 178.762672v6.800754a341.397843 341.397843 0 0 0 68.007539 675.800626H1126.982067A511.999611 511.999611 0 1 0 1126.982067 0.097542z" fill="#D0D3D6" p-id="33980"></path><path d="M1443.508582 110.269755a511.999611 511.999611 0 0 1-401.633092 829.303355h-785.001302a340.426307 340.426307 0 0 1-195.473096-61.401092 341.592151 341.592151 0 0 0 279.802444 145.73044H1126.982067a511.805304 511.805304 0 0 0 317.303744-913.244089z" fill="#B0B9C1" p-id="33981"></path></svg>