<?xml version="1.0" standalone="no"?><!DOCTYPE svg PUBLIC "-//W3C//DTD SVG 1.1//EN" "http://www.w3.org/Graphics/SVG/1.1/DTD/svg11.dtd"><svg t="1732764101539" class="icon" viewBox="0 0 1024 1024" version="1.1" xmlns="http://www.w3.org/2000/svg" p-id="6306" xmlns:xlink="http://www.w3.org/1999/xlink" width="200" height="200"><path d="M812.3392 157.184C773.12 117.9648 728.576 87.4496 680.96 65.536c76.8 167.3216 46.2848 371.9168-91.5456 509.7472S246.9888 743.6288 79.6672 666.8288c21.8112 47.616 52.3264 92.2624 91.5456 131.4816 177.0496 177.0496 464.0768 177.0496 641.1264 0s177.0496-464.0768 0-641.1264zM293.6832 189.3376h-0.4096c0.1024 0.1024 0.2048 0 0.4096 0zM393.0112 166.912c-13.6192-13.6192-20.992-31.1296-22.3232-48.9472h-0.4096c-1.2288 17.8176-8.704 35.328-22.3232 48.9472-14.9504 14.9504-34.6112 22.528-54.272 22.528 19.6608 0 39.3216 7.4752 54.272 22.528 14.5408 14.5408 22.016 33.4848 22.4256 52.5312 0.4096-19.0464 7.8848-37.9904 22.4256-52.5312 14.9504-14.9504 34.4064-22.4256 53.9648-22.528-19.456-0.2048-38.912-7.68-53.76-22.528z" fill="#F8B83A" p-id="6307"></path><path d="M449.024 117.248h-0.1024 0.1024zM490.0864 107.9296c-5.632-5.632-8.704-12.9024-9.216-20.2752h-0.2048c-0.512 7.3728-3.584 14.6432-9.216 20.2752-6.144 6.144-14.336 9.3184-22.4256 9.3184 8.0896 0 16.2816 3.072 22.4256 9.3184 6.0416 6.0416 9.1136 13.824 9.3184 21.7088 0.2048-7.8848 3.2768-15.6672 9.3184-21.7088 6.144-6.144 14.2336-9.216 22.3232-9.3184-8.0896-0.1024-16.1792-3.1744-22.3232-9.3184z" fill="#F8B83A" p-id="6308"></path></svg>