<?xml version="1.0" standalone="no"?><!DOCTYPE svg PUBLIC "-//W3C//DTD SVG 1.1//EN" "http://www.w3.org/Graphics/SVG/1.1/DTD/svg11.dtd"><svg t="1732764284388" class="icon" viewBox="0 0 1294 1024" version="1.1" xmlns="http://www.w3.org/2000/svg" p-id="8218" xmlns:xlink="http://www.w3.org/1999/xlink" width="252.734375" height="200"><path d="M1065.598801 1024c125.815128 0 227.513794-113.756897 227.513794-254.132908s-102.836235-253.905394-227.513794-253.905394h-163.582418c-125.815128 0-228.651363 113.756897-228.651363 253.905394S776.201255 1024 902.016383 1024z" fill="#E9E9E9" p-id="8219"></path><path d="M121.189042 421.088446a273.016553 273.016553 0 0 1-89.867949-20.248728 22.751379 22.751379 0 0 0-13.878341 0 21.386297 21.386297 0 0 0-17.063535 25.026517 355.376546 355.376546 0 0 0 329.439974 267.328708A352.418867 352.418867 0 0 0 705.671979 364.209997 351.736326 351.736326 0 0 0 389.200291 0.187926a22.751379 22.751379 0 0 0-13.650827 2.502652 22.751379 22.751379 0 0 0-7.962983 29.576793 252.995339 252.995339 0 0 1 34.582097 141.968608A263.916001 263.916001 0 0 1 121.189042 421.088446z" fill="#FDCC5F" p-id="8220"></path><path d="M284.998974 1024h663.885251a234.566722 234.566722 0 0 0 89.412921-450.704826 343.545829 343.545829 0 0 0 6.370386-65.296459 328.302405 328.302405 0 1 0-653.419617 45.502759A239.116998 239.116998 0 0 0 296.147149 532.570205 244.122301 244.122301 0 0 0 52.479876 777.830075v10.920662A234.111694 234.111694 0 0 0 284.998974 1024z" fill="#F6F6F6" p-id="8221"></path></svg>