<?xml version="1.0" standalone="no"?><!DOCTYPE svg PUBLIC "-//W3C//DTD SVG 1.1//EN" "http://www.w3.org/Graphics/SVG/1.1/DTD/svg11.dtd"><svg t="1732455247478" class="icon" viewBox="0 0 1024 1024" version="1.1" xmlns="http://www.w3.org/2000/svg" p-id="20191" xmlns:xlink="http://www.w3.org/1999/xlink" width="200" height="200"><path d="M416.52 673.88h160.09l-75.83 108.08h154.33L458.24 1024l66.01-174.56H368.89z" fill="#FFCB39" p-id="20192"></path><path d="M763.18 206.51h-9.56C735.33 89.51 634.12 0 512 0S288.67 89.51 270.38 206.51h-9.56C121.55 206.51 7.6 320.46 7.6 459.72c0 139.27 113.95 253.21 253.21 253.21h502.36c139.27 0 253.21-113.95 253.21-253.21 0.02-139.26-113.93-253.21-253.2-253.21z" fill="#B8E7FF" p-id="20193"></path><path d="M783.35 760.15l-82.71 118.37c-14.55 20.83 9.65 46.76 31.43 33.67 5.06-3.04 8.79-7.87 10.46-13.53l40.82-138.51zM317.96 760.15l-82.71 118.37c-14.55 20.83 9.65 46.76 31.43 33.67 5.06-3.04 8.79-7.87 10.46-13.53l40.82-138.51z" fill="#99F5FF" p-id="20194"></path></svg>