<?xml version="1.0" standalone="no"?><!DOCTYPE svg PUBLIC "-//W3C//DTD SVG 1.1//EN" "http://www.w3.org/Graphics/SVG/1.1/DTD/svg11.dtd"><svg t="1732539495824" class="icon" viewBox="0 0 1024 1024" version="1.1" xmlns="http://www.w3.org/2000/svg" p-id="42917" xmlns:xlink="http://www.w3.org/1999/xlink" width="200" height="200"><path d="M0 0h1024v1024H0V0z" fill="#FFFFFF" fill-opacity=".01" p-id="42918"></path><path d="M423.2 818.4l71.2 56-60.8 112.8 139.2-113.6-59.2-60 88.8-112.8-179.2 117.6z" fill="#FFB612" p-id="42919"></path><path d="M498.4 27.2C624.8 27.2 728 129.6 728 256c0 21.6-3.2 42.4-8.8 63.2 92-49.6 206.4-15.2 255.2 76.8 49.6 92 15.2 206.4-76.8 255.2-28 15.2-59.2 23.2-91.2 22.4H268.8c-131.2 0-238.4-104-242.4-235.2v-7.2c0-133.6 108.8-242.4 242.4-242.4h10.4c29.6-96 118.4-161.6 219.2-161.6zM306.4 760.8c16.8 6.4 22.4 17.6 16 34.4l-55.2 152c-6.4 16.8-17.6 22.4-34.4 16-16.8-6.4-22.4-17.6-16-34.4l55.2-152c6.4-16.8 17.6-21.6 34.4-16zM791.2 760.8c16.8 6.4 22.4 17.6 16 34.4l-55.2 152c-6.4 16.8-17.6 22.4-34.4 16-16.8-6.4-22.4-17.6-16-34.4l55.2-152c6.4-16.8 17.6-21.6 34.4-16z" fill="#78CCFF" p-id="42920"></path><path d="M875.2 784.8l25.6 8c16.8 5.6 23.2 16.8 17.6 33.6l-8 25.6c-5.6 16.8-16.8 23.2-33.6 17.6l-25.6-8c-16.8-5.6-23.2-16.8-17.6-33.6l8-25.6c5.6-17.6 16.8-23.2 33.6-17.6zM840 892l25.6 8c16.8 5.6 23.2 16.8 17.6 33.6l-8 25.6c-5.6 16.8-16.8 23.2-33.6 17.6l-25.6-8c-16.8-5.6-23.2-16.8-17.6-33.6l8-25.6c5.6-16.8 16.8-23.2 33.6-17.6zM183.2 744l25.6 8c16.8 5.6 23.2 16.8 17.6 33.6l-8 25.6c-5.6 16.8-16.8 23.2-33.6 17.6l-25.6-8c-16.8-5.6-23.2-16.8-17.6-33.6l8-25.6c5.6-17.6 16.8-23.2 33.6-17.6zM148 852l25.6 8c16.8 5.6 23.2 16.8 17.6 33.6l-8 25.6c-5.6 16.8-16.8 23.2-33.6 17.6l-25.6-8c-16.8-5.6-23.2-16.8-17.6-33.6l8-25.6c5.6-17.6 16.8-23.2 33.6-17.6z" fill="#9FDFFF" p-id="42921"></path></svg>