<?xml version="1.0" standalone="no"?><!DOCTYPE svg PUBLIC "-//W3C//DTD SVG 1.1//EN" "http://www.w3.org/Graphics/SVG/1.1/DTD/svg11.dtd"><svg t="1732540420941" class="icon" viewBox="0 0 1108 1024" version="1.1" xmlns="http://www.w3.org/2000/svg" p-id="51683" xmlns:xlink="http://www.w3.org/1999/xlink" width="216.40625" height="200"><path d="M265.337521 274.749836A274.749836 274.749836 0 1 0 540.087357 0a274.749836 274.749836 0 0 0-274.749836 274.749836z" fill="#9FDFFF" p-id="51684"></path><path d="M310.254353 778.457869a310.224782 310.224782 0 1 1 291.522004-416.28763 273.301879 273.301879 0 1 1 240.21003 416.28763z" fill="#78CCFF" p-id="51685"></path><path d="M313.813914 833.691395a76.138404 76.138404 0 1 1-151.221007 0c0-46.968104 75.655752-139.969174 75.655752-139.969175s75.565255 93.061401 75.565255 139.969175z" fill="#9FDFFF" p-id="51686"></path><path d="M616.467088 938.879436a76.16857 76.16857 0 1 1-151.281339 0c0-46.907773 75.655752-139.969174 75.655752-139.969174s75.625586 93.00107 75.625587 139.969174z" fill="#78CCFF" p-id="51687"></path><path d="M931.39773 865.03363a76.138404 76.138404 0 1 1-151.221007 0c0-46.968104 75.655752-139.969174 75.655752-139.969174s75.565255 93.061401 75.565255 139.969174z" fill="#9FDFFF" p-id="51688"></path></svg>