<?xml version="1.0" standalone="no"?><!DOCTYPE svg PUBLIC "-//W3C//DTD SVG 1.1//EN" "http://www.w3.org/Graphics/SVG/1.1/DTD/svg11.dtd"><svg t="1732540559386" class="icon" viewBox="0 0 1024 1024" version="1.1" xmlns="http://www.w3.org/2000/svg" p-id="62345" xmlns:xlink="http://www.w3.org/1999/xlink" width="200" height="200"><path d="M116 308c0 158.4 128 286.4 286.4 286.4s286.4-128 286.4-286.4c0-158.4-128-286.4-286.4-286.4s-286.4 128-286.4 286.4z" fill="#9FDFFF" p-id="62346"></path><path d="M478.4 498.4C478.4 638.4 592 752 732 752s252.8-113.6 252.8-252.8-113.6-252.8-252.8-252.8-253.6 112.8-253.6 252z" fill="#78CCFF" p-id="62347"></path><path d="M39.2 522.4C39.2 648.8 141.6 752 268.8 752s229.6-102.4 229.6-229.6-103.2-228.8-229.6-228.8S39.2 396 39.2 522.4z" fill="#78CCFF" p-id="62348"></path><path d="M266.4 522.4h463.2V752H266.4z" fill="#78CCFF" p-id="62349"></path><path d="M298.4 632c12 0 22.4 9.6 22.4 22.4v79.2c0 12-9.6 22.4-22.4 22.4-12 0-22.4-9.6-22.4-22.4v-79.2c0.8-12 10.4-22.4 22.4-22.4z m212.8-37.6c12 0 22.4 9.6 22.4 22.4v164c0 12-9.6 22.4-22.4 22.4-12 0-22.4-9.6-22.4-22.4V616.8c0-12 10.4-22.4 22.4-22.4z m212.8 20c12 0 22.4 9.6 22.4 22.4v97.6c0 12-9.6 22.4-22.4 22.4-12 0-22.4-9.6-22.4-22.4V636.8c0-12.8 9.6-22.4 22.4-22.4zM672 920.8l50.4-129.6 48 133.6c10.4 23.2 3.2 50.4-17.6 65.6-20.8 15.2-48.8 13.6-68-2.4-20-16.8-24.8-44.8-12.8-67.2zM256 920.8l50.4-129.6 48 133.6c10.4 23.2 3.2 50.4-17.6 65.6-20.8 15.2-48.8 13.6-68-2.4-20-16.8-24.8-44.8-12.8-67.2z" fill="#50ACFB" p-id="62350"></path><path d="M543.2 920l16.8 10.4c7.2 4 9.6 14.4 5.6 21.6-4 7.2-13.6 10.4-20.8 5.6l-16.8-10.4v20c0 8.8-6.4 16-15.2 16-8 0-15.2-7.2-15.2-16v-20l-16.8 10.4c-7.2 4-16 1.6-20-4.8 0 0 0-0.8-0.8-0.8-4-7.2-1.6-17.6 5.6-21.6l16.8-10.4-16.8-10.4c-7.2-4-9.6-14.4-5.6-21.6 4-7.2 13.6-10.4 20.8-5.6l16.8 10.4v-20c0-8.8 6.4-16 15.2-16 8 0 15.2 7.2 15.2 16v20l16.8-10.4c3.2-2.4 8-2.4 11.2-1.6 4 0.8 7.2 4 8.8 7.2 4 7.2 1.6 17.6-5.6 21.6l-16 10.4z" fill="#9FDFFF" p-id="62351"></path></svg>