<?xml version="1.0" standalone="no"?><!DOCTYPE svg PUBLIC "-//W3C//DTD SVG 1.1//EN" "http://www.w3.org/Graphics/SVG/1.1/DTD/svg11.dtd"><svg t="1732598156046" class="icon" viewBox="0 0 1024 1024" version="1.1" xmlns="http://www.w3.org/2000/svg" p-id="86040" xmlns:xlink="http://www.w3.org/1999/xlink" width="200" height="200"><path d="M132.906667 318.378667a275.712 275.712 0 1 0 551.381333 0 275.712 275.712 0 0 0-551.381333 0z" fill="#9FDFFF" p-id="86041"></path><path d="M477.525333 490.666667a241.237333 241.237333 0 1 0 482.474667 0 241.237333 241.237333 0 0 0-482.474667 0z" fill="#78CCFF" p-id="86042"></path><path d="M64 507.904a224 224 0 1 0 448 0 224 224 0 0 0-448 0z" fill="#78CCFF" p-id="86043"></path><path d="M270.762667 525.141333h448v206.762667h-448z" fill="#78CCFF" p-id="86044"></path><path d="M354.688 655.786667h-41.685333l20.821333-35.541334a18.218667 18.218667 0 0 0-6.912-24.96 18.688 18.688 0 0 0-25.258667 6.869334l-20.864 35.541333-20.821333-35.541333a18.688 18.688 0 0 0-25.258667-6.826667 18.218667 18.218667 0 0 0-6.912 24.917333l20.821334 35.541334H206.933333c-10.069333 0-18.304 8.106667-18.304 18.090666 0 9.984 8.234667 18.090667 18.346667 18.090667h41.642667l-20.821334 35.584a18.218667 18.218667 0 0 0 6.912 24.917333 18.048 18.048 0 0 0 24.618667-6.229333l20.864-35.541333 20.821333 35.541333a18.048 18.048 0 0 0 15.786667 8.746667 14.634667 14.634667 0 0 0 8.832-2.517334 18.218667 18.218667 0 0 0 6.954667-24.917333l-20.821334-35.584h41.642667c10.112 0 18.346667-8.106667 18.346667-18.090667 0-9.984-6.997333-18.090667-17.066667-18.090666z m448.213333 0h-41.642666l20.821333-35.541334a18.218667 18.218667 0 0 0-6.954667-24.96 18.688 18.688 0 0 0-25.258666 6.869334l-20.821334 35.541333-20.821333-35.541333a18.688 18.688 0 0 0-25.258667-6.826667 18.218667 18.218667 0 0 0-6.954666 24.917333l20.821333 35.541334h-41.642667c-10.112 0-18.346667 8.106667-18.346666 18.090666 0 9.984 8.234667 18.090667 18.346666 18.090667h41.642667l-20.821333 35.584a18.218667 18.218667 0 0 0 6.954666 24.917333 18.048 18.048 0 0 0 24.618667-6.229333l20.821333-35.541333 20.864 35.541333a18.048 18.048 0 0 0 15.786667 8.746667 14.634667 14.634667 0 0 0 8.832-2.517334 18.218667 18.218667 0 0 0 6.912-24.917333l-20.821333-35.584h41.685333c10.069333 0 18.304-8.106667 18.304-18.090667 0-9.984-6.954667-18.090667-17.066667-18.090666z m-329.557333 187.306666h-28.416l14.506667-24.32a12.032 12.032 0 0 0-4.394667-16.810666 12.330667 12.330667 0 0 0-17.066667 4.352l-14.506666 24.32-14.506667-24.32c-3.797333-6.229333-11.349333-8.106667-17.066667-4.352-6.272 3.712-8.192 11.221333-4.394666 16.810666l14.506666 24.32h-28.416a12.586667 12.586667 0 0 0-12.586666 12.501334c0 6.826667 5.674667 12.458667 12.586666 12.458666h28.416l-14.506666 24.32a12.032 12.032 0 0 0 4.437333 16.853334c1.877333 1.28 4.394667 1.877333 6.314667 1.877333a12.245333 12.245333 0 0 0 10.709333-6.229333l14.506667-24.32 14.506666 24.32c2.56 3.712 6.357333 6.229333 10.752 6.229333a12.288 12.288 0 0 0 6.314667-1.877333c6.314667-3.754667 8.234667-11.221333 4.437333-16.853334l-14.506666-24.32h28.373333a12.586667 12.586667 0 0 0 12.629333-12.458666 12.586667 12.586667 0 0 0-12.629333-12.501334z m248.149333 41.386667h-28.416l14.506667-24.32a12.032 12.032 0 0 0-4.394667-16.853333 12.330667 12.330667 0 0 0-17.066666 4.352l-14.506667 24.32-14.506667-24.32c-3.84-6.229333-11.392-8.106667-17.066666-4.352-6.314667 3.712-8.192 11.221333-4.437334 16.810666l14.506667 24.32h-28.373333a12.586667 12.586667 0 0 0-12.629334 12.501334c0 6.826667 5.674667 12.458667 12.629334 12.458666h28.416l-14.506667 24.32a12.032 12.032 0 0 0 4.394667 16.853334c1.877333 1.28 4.437333 1.877333 6.314666 1.877333a12.245333 12.245333 0 0 0 10.709334-6.229333l14.506666-24.32 14.549334 24.32c2.56 3.754667 6.314667 6.229333 10.752 6.229333a12.288 12.288 0 0 0 6.314666-1.877333c6.314667-3.712 8.192-11.221333 4.394667-16.810667l-14.506667-24.32h28.416a12.586667 12.586667 0 0 0 12.629334-12.501333 12.586667 12.586667 0 0 0-12.629334-12.458667z" fill="#9FDFFF" p-id="86045"></path></svg>