<?xml version="1.0" standalone="no"?><!DOCTYPE svg PUBLIC "-//W3C//DTD SVG 1.1//EN" "http://www.w3.org/Graphics/SVG/1.1/DTD/svg11.dtd"><svg t="1732593373087" class="icon" viewBox="0 0 1024 1024" version="1.1" xmlns="http://www.w3.org/2000/svg" p-id="72747" xmlns:xlink="http://www.w3.org/1999/xlink" width="200" height="200"><path d="M115.9168 307.968a286.5152 286.5152 0 1 0 573.0304 0 286.5152 286.5152 0 0 0-573.0304 0z" fill="#9FDFFF" p-id="72748"></path><path d="M478.5664 498.5856a253.0816 253.0816 0 1 0 506.1632 0 253.0816 253.0816 0 0 0-506.1632 0z" fill="#78CCFF" p-id="72749"></path><path d="M39.2192 522.4448a229.2224 229.2224 0 1 0 458.4448 0 229.2224 229.2224 0 0 0-458.4448 0z" fill="#78CCFF" p-id="72750"></path><path d="M266.0864 522.4448h463.2064v229.2224H266.0864V522.4448z" fill="#78CCFF" p-id="72751"></path><path d="M391.7312 767.7952l23.1936-5.7344a3.5712 3.5712 0 0 0 2.4576-1.6384 3.4688 3.4688 0 0 0 0.4096-2.9184 3.9936 3.9936 0 0 0-4.7616-2.6112l-30.8224 7.8848-23.1936-12.4416 26.2656-14.08 30.8224 7.6288h0.9728a3.84 3.84 0 0 0 3.84-3.1232 3.5456 3.5456 0 0 0-2.8672-4.0448l-23.1936-5.7344 27.2384-14.592a3.6096 3.6096 0 0 0 1.4336-5.0176 4.1216 4.1216 0 0 0-5.2736-1.4336l-27.2384 14.7968 6.1952-21.504a3.4688 3.4688 0 0 0-0.4096-2.9184 3.584 3.584 0 0 0-2.4576-1.6384 4.0576 4.0576 0 0 0-4.7616 2.6112l-8.3456 28.672-26.2656 14.08v-28.2112l22.4768-20.7872a3.2512 3.2512 0 0 0 1.28-2.6112 3.2512 3.2512 0 0 0-1.28-2.6112 4.032 4.032 0 0 0-5.4784 0l-16.9472 15.7696v-29.1328a4.1088 4.1088 0 0 0-3.9424-3.072 4.096 4.096 0 0 0-3.9424 3.072v29.1328l-16.9472-15.7696a4.032 4.032 0 0 0-5.4784 0 3.2512 3.2512 0 0 0-1.28 2.6112c0 1.024 0.4608 1.9968 1.28 2.6112l22.4768 20.7872v27.9552l-26.2656-14.08-8.1408-28.2112a3.9936 3.9936 0 0 0-4.7616-2.6112 3.5712 3.5712 0 0 0-2.4576 1.6384 3.4688 3.4688 0 0 0-0.4096 2.9184l6.1952 21.504-27.2384-14.7968a4.1216 4.1216 0 0 0-5.2736 1.4336 3.5968 3.5968 0 0 0 1.4336 5.0176l27.2384 14.592-23.3984 5.4784a3.5712 3.5712 0 0 0-2.4576 1.6384 3.4688 3.4688 0 0 0-0.4096 2.9184 3.9936 3.9936 0 0 0 4.7616 2.6112l30.8224-7.6288 26.2656 14.08-23.1936 12.4416-30.5664-7.6288a4.0576 4.0576 0 0 0-4.7616 2.6112 3.712 3.712 0 0 0 0.3072 2.8672c0.512 0.8704 1.3312 1.4848 2.304 1.6896l23.1936 5.7344-30.3616 16.0256a3.4944 3.4944 0 0 0-1.8944 4.0448c0.512 1.6384 2.0992 2.7136 3.84 2.6112l1.8944-0.4608 30.3616-16.2304-6.1952 21.504a3.4688 3.4688 0 0 0 0.4096 2.9184 3.584 3.584 0 0 0 2.4576 1.6384c2.048 0.4608 4.096-0.6656 4.7616-2.6112l8.3456-28.416 23.1936-12.4416v24.832l-22.4768 20.7872a3.2512 3.2512 0 0 0-1.28 2.6112c0 1.024 0.4608 1.9968 1.28 2.6112 1.536 1.4336 3.9424 1.4336 5.4784 0l16.9472-15.7696v32.256a4.096 4.096 0 0 0 3.9424 3.072 4.096 4.096 0 0 0 3.9424-3.072v-32.256l16.9472 15.7696c1.536 1.4336 3.9424 1.4336 5.4784 0a3.2512 3.2512 0 0 0 1.28-2.6112 3.2512 3.2512 0 0 0-1.28-2.6112l-22.4768-20.7872v-24.832l23.1936 12.4416 8.3456 28.416a3.9936 3.9936 0 0 0 4.7616 2.6112 3.584 3.584 0 0 0 2.4576-1.6384 3.4688 3.4688 0 0 0 0.4096-2.9184l-6.1952-21.504 30.3616 16.2304a4.1472 4.1472 0 0 0 5.5296-1.2288 3.3408 3.3408 0 0 0-0.256-4.1472 3.584 3.584 0 0 0-1.1776-0.8704l-30.6688-16.1792z m293.12 0l23.1936-5.7344a3.584 3.584 0 0 0 2.4576-1.6384 3.4688 3.4688 0 0 0 0.4096-2.9184 3.9936 3.9936 0 0 0-4.7616-2.6112l-30.8224 7.8848-23.1936-12.4416L678.4 736.256l30.8224 7.6288h0.9728a3.84 3.84 0 0 0 3.84-3.1232 3.5584 3.5584 0 0 0-2.8672-4.0448l-23.1936-5.7344 27.2384-14.592a3.6224 3.6224 0 0 0 1.4336-5.0176 4.1216 4.1216 0 0 0-5.2736-1.4336l-27.2384 14.7968 6.1952-21.504a3.4688 3.4688 0 0 0-0.4096-2.9184 3.584 3.584 0 0 0-2.4576-1.6384 4.0576 4.0576 0 0 0-4.7616 2.6112l-8.3456 28.672-26.2656 14.08v-28.2112l22.4768-20.7872a3.2512 3.2512 0 0 0 1.28-2.6112 3.2512 3.2512 0 0 0-1.28-2.6112 4.032 4.032 0 0 0-5.4784 0l-16.9472 15.7696v-29.1328a4.096 4.096 0 0 0-3.9424-3.072 4.096 4.096 0 0 0-3.9424 3.072v29.1328l-16.9472-15.7696a4.0192 4.0192 0 0 0-5.4784 0 3.2512 3.2512 0 0 0-1.28 2.6112c0 1.024 0.4608 1.9968 1.28 2.6112l22.4768 20.7872v27.9552l-26.2656-14.08-8.1408-28.2112a3.9936 3.9936 0 0 0-4.7616-2.6112 3.584 3.584 0 0 0-2.4576 1.6384 3.4688 3.4688 0 0 0-0.4096 2.9184l6.1952 21.504-27.2384-14.7968a4.1344 4.1344 0 0 0-5.2736 1.4336 3.6224 3.6224 0 0 0 1.4336 5.0176l27.2384 14.592-23.3984 5.4784a3.584 3.584 0 0 0-2.4576 1.6384 3.4688 3.4688 0 0 0-0.4096 2.9184 3.9936 3.9936 0 0 0 4.7616 2.6112l30.8224-7.6288 26.2656 14.08-23.1936 12.4416-30.5664-7.6288a4.0576 4.0576 0 0 0-4.7616 2.6112 3.712 3.712 0 0 0 0.3072 2.8672c0.512 0.8704 1.3312 1.4848 2.304 1.6896l23.1936 5.7344-30.3616 16.0256a3.4944 3.4944 0 0 0-1.8944 4.0448c0.512 1.6384 2.0992 2.7136 3.84 2.6112l1.8944-0.4608 30.3616-16.2304-6.1952 21.504a3.4688 3.4688 0 0 0 0.4096 2.9184 3.5712 3.5712 0 0 0 2.4576 1.6384c2.048 0.4608 4.096-0.6656 4.7616-2.6112l8.3456-28.416 23.1936-12.4416v24.832l-22.4768 20.7872a3.2512 3.2512 0 0 0-1.28 2.6112c0 1.024 0.4608 1.9968 1.28 2.6112 1.536 1.4336 3.9424 1.4336 5.4784 0l16.9472-15.7696v32.256a4.096 4.096 0 0 0 3.9424 3.072 4.096 4.096 0 0 0 3.9424-3.072v-32.256l16.9472 15.7696c1.536 1.4336 3.9424 1.4336 5.4784 0a3.2512 3.2512 0 0 0 1.28-2.6112 3.2512 3.2512 0 0 0-1.28-2.6112l-22.4768-20.7872v-24.832l23.1936 12.4416 8.3456 28.416a3.9936 3.9936 0 0 0 4.7616 2.6112 3.584 3.584 0 0 0 2.4576-1.6384 3.4688 3.4688 0 0 0 0.4096-2.9184l-6.1952-21.504 30.3616 16.2304a4.1472 4.1472 0 0 0 5.5296-1.2288 3.3408 3.3408 0 0 0-0.256-4.1472 3.584 3.584 0 0 0-1.1776-0.8704l-30.6688-16.1792z" fill="#9FDFFF" p-id="72752"></path><path d="M201.728 974.7968c33.6384 0 60.928-30.6176 60.928-68.4544 0-37.7856-60.928-112.7424-60.928-112.7424S140.8 868.5568 140.8 906.3424s27.2896 68.4544 60.928 68.4544z" fill="#78CCFF" p-id="72753"></path><path d="M538.2528 895.8464l23.2064-5.7344a3.584 3.584 0 0 0 2.4576-1.6384 3.4688 3.4688 0 0 0 0.4096-2.9184 3.9808 3.9808 0 0 0-4.7744-2.6112l-30.8224 7.8848-23.1936-12.4416 26.2784-14.08 30.8096 7.6288h0.9856a3.84 3.84 0 0 0 3.84-3.1232 3.5584 3.5584 0 0 0-2.8672-4.0448l-23.2064-5.7344 27.2384-14.592a3.6096 3.6096 0 0 0 1.4336-5.0176 4.096 4.096 0 0 0-5.2608-1.4336l-27.2512 14.7968 6.208-21.504a3.4688 3.4688 0 0 0-0.4096-2.9184 3.584 3.584 0 0 0-2.4704-1.6384 4.0576 4.0576 0 0 0-4.7616 2.6112l-8.3456 28.672-26.2656 14.08v-28.2112l22.4768-20.7872a3.2512 3.2512 0 0 0 1.28-2.6112 3.2512 3.2512 0 0 0-1.28-2.6112 4.0192 4.0192 0 0 0-5.4784 0l-16.9344 15.7696v-29.1328a4.096 4.096 0 0 0-3.9424-3.072 4.096 4.096 0 0 0-3.9424 3.072v29.1328l-16.96-15.7696a4.0192 4.0192 0 0 0-5.4784 0 3.2512 3.2512 0 0 0-1.28 2.6112c0 1.024 0.4608 1.9968 1.28 2.6112l22.4896 20.7872v27.9552l-26.2784-14.08-8.1408-28.2112a3.9808 3.9808 0 0 0-4.7616-2.6112 3.584 3.584 0 0 0-2.4576 1.6384 3.4688 3.4688 0 0 0-0.4096 2.9184l6.208 21.504-27.2384-14.7968a4.1216 4.1216 0 0 0-5.2864 1.4336 3.6224 3.6224 0 0 0 1.4336 5.0176l27.2384 14.592-23.3856 5.4784a3.584 3.584 0 0 0-2.4576 1.6384 3.4688 3.4688 0 0 0-0.4096 2.9184 3.9936 3.9936 0 0 0 4.7488 2.6112l30.8352-7.6288 26.2528 14.08-23.1808 12.4416-30.5792-7.6288a4.0576 4.0576 0 0 0-4.7616 2.6112 3.712 3.712 0 0 0 0.3072 2.8672c0.512 0.8704 1.3312 1.4848 2.304 1.6896l23.2064 5.7344-30.3616 16.0256a3.4944 3.4944 0 0 0-1.8944 4.0448c0.512 1.6384 2.0864 2.7136 3.84 2.6112l1.8944-0.4608 30.3488-16.2304-6.1824 21.504a3.4688 3.4688 0 0 0 0.4096 2.9184 3.584 3.584 0 0 0 2.4576 1.6384c2.048 0.4608 4.096-0.6656 4.7616-2.6112l8.3456-28.416 23.1936-12.4416v24.832l-22.4896 20.7872a3.2512 3.2512 0 0 0-1.28 2.6112c0 1.024 0.4608 1.9968 1.28 2.6112 1.536 1.4336 3.9552 1.4336 5.4784 0l16.96-15.7696v32.256a4.096 4.096 0 0 0 3.9424 3.072 4.096 4.096 0 0 0 3.9424-3.072v-32.256l16.9472 15.7696c1.536 1.4336 3.9296 1.4336 5.4656 0a3.2512 3.2512 0 0 0 1.28-2.6112 3.2512 3.2512 0 0 0-1.28-2.6112l-22.4768-20.7872v-24.832l23.2064 12.4416 8.3456 28.416a3.9936 3.9936 0 0 0 4.7616 2.6112 3.584 3.584 0 0 0 2.4576-1.6384 3.4688 3.4688 0 0 0 0.4096-2.9184l-6.208-21.504 30.3616 16.2304a4.1472 4.1472 0 0 0 5.5296-1.2288 3.3408 3.3408 0 0 0-0.256-4.1344 3.584 3.584 0 0 0-1.1776-0.8832l-30.6688-16.1792z" fill="#78CCFF" p-id="72754"></path><path d="M790.528 974.7968c33.6384 0 60.928-30.6176 60.928-68.4544 0-37.7856-60.928-112.7424-60.928-112.7424S729.6 868.5568 729.6 906.3424s27.2896 68.4544 60.928 68.4544z" fill="#78CCFF" p-id="72755"></path></svg>