<?xml version="1.0" standalone="no"?><!DOCTYPE svg PUBLIC "-//W3C//DTD SVG 1.1//EN" "http://www.w3.org/Graphics/SVG/1.1/DTD/svg11.dtd"><svg t="1732604895420" class="icon" viewBox="0 0 1049 1024" version="1.1" xmlns="http://www.w3.org/2000/svg" p-id="115165" xmlns:xlink="http://www.w3.org/1999/xlink" width="204.8828125" height="200"><path d="M248.3968 140.8a64 64 0 1 1-128 0 64 64 0 0 1 128 0zM581.1968 140.8a64 64 0 1 1-128 0 64 64 0 0 1 128 0zM913.9968 140.8a64 64 0 1 1-128 0 64 64 0 0 1 128 0zM414.7968 345.6a64 64 0 1 1-128 0 64 64 0 0 1 128 0zM747.5968 345.6a64 64 0 1 1-128 0 64 64 0 0 1 128 0zM248.3968 550.4a64 64 0 1 1-128 0 64 64 0 0 1 128 0zM581.1968 550.4a64 64 0 1 1-128 0 64 64 0 0 1 128 0zM913.9968 550.4a64 64 0 1 1-128 0 64 64 0 0 1 128 0z" fill="#B7E2FF" p-id="115166"></path><path d="M130.2016 714.7008c-26.4448 0-48.2048 19.968-48.2048 45.2608 0 25.2672 21.76 45.2608 48.2048 45.2608 0 0 133.7344-23.5264 220.2368-23.5264 134.0672 0 206.336 45.9008 340.5824 47.0272 71.3472 0.6144 170.0352-11.008 223.4112-18.1504a43.904 43.904 0 0 0 37.9648-43.7504c0-27.392-24.3712-48.4608-51.5584-44.9792-55.3472 7.1168-144.1536 16.9216-209.8176 16.384C556.7488 737.0752 483.328 691.2 350.4384 691.2c-86.5024 0-220.2368 23.5008-220.2368 23.5008z" fill="#95B8FF" p-id="115167"></path></svg>