<?xml version="1.0" standalone="no"?><!DOCTYPE svg PUBLIC "-//W3C//DTD SVG 1.1//EN" "http://www.w3.org/Graphics/SVG/1.1/DTD/svg11.dtd"><svg t="1732605145614" class="icon" viewBox="0 0 1024 1024" version="1.1" xmlns="http://www.w3.org/2000/svg" p-id="120541" xmlns:xlink="http://www.w3.org/1999/xlink" width="200" height="200"><path d="M167.936 597.504c-76.8-70.656-81.92-190.464-11.264-267.264 32.768-35.84 77.824-57.344 125.952-60.928 33.28-94.72 123.392-162.816 229.376-162.816 125.44 0 228.352 94.72 241.664 216.064h1.536c89.6 0 162.304 72.704 162.304 162.304 0 41.984-16.384 81.92-45.056 112.128H167.936v0.512z m37.888 265.728h432.128c14.848-0.512 27.136 11.264 27.648 26.112s-11.264 27.136-26.112 27.648H205.824c-14.848-0.512-26.624-12.8-26.112-27.648 0-14.336 11.776-25.6 26.112-26.112z m108.032-108.032h432.128c14.848 0.512 26.624 12.8 26.112 27.648-0.512 14.336-11.776 26.112-26.112 26.112H313.856c-14.848 0.512-27.136-11.264-27.648-26.112-0.512-14.848 11.264-27.136 26.112-27.648h1.536z m-90.112-108.032h432.128c14.848 0 27.136 12.288 27.136 27.136s-12.288 27.136-27.136 27.136H223.744c-14.848 0-27.136-12.288-27.136-27.136s12.288-27.136 27.136-27.136z m540.672 0c14.848 0 27.136 12.288 27.136 27.136s-12.288 27.136-27.136 27.136-27.136-12.288-27.136-27.136 11.776-27.136 27.136-27.136z m89.6 108.032c14.848-0.512 27.136 11.264 27.648 26.112 0.512 14.848-11.264 27.136-26.112 27.648h-1.536c-14.848-0.512-26.624-12.8-26.112-27.648 0.512-14.336 12.288-25.6 26.112-26.112z m-108.032 108.032c14.848-0.512 27.136 11.264 27.648 26.112s-11.264 27.136-26.112 27.648h-1.536c-14.848-0.512-26.624-12.8-26.112-27.648 0.512-14.336 11.776-25.6 26.112-26.112z" fill="#E0B877" p-id="120542"></path></svg>