<?xml version="1.0" standalone="no"?><!DOCTYPE svg PUBLIC "-//W3C//DTD SVG 1.1//EN" "http://www.w3.org/Graphics/SVG/1.1/DTD/svg11.dtd"><svg t="1732598895033" class="icon" viewBox="0 0 1024 1024" version="1.1" xmlns="http://www.w3.org/2000/svg" p-id="101610" xmlns:xlink="http://www.w3.org/1999/xlink" width="200" height="200"><path d="M87.296 332.8a307.2 307.2 0 1 0 614.4 0 307.2 307.2 0 0 0-614.4 0z" fill="#9FDFFF" p-id="101611"></path><path d="M476.16 537.1904a271.36 271.36 0 1 0 542.72 0 271.36 271.36 0 0 0-542.72 0z" fill="#78CCFF" p-id="101612"></path><path d="M5.12 562.7904a245.76 245.76 0 1 0 491.52 0 245.76 245.76 0 0 0-491.52 0z" fill="#78CCFF" p-id="101613"></path><path d="M248.32 562.7904h496.64v245.76H248.32v-245.76z" fill="#78CCFF" p-id="101614"></path><path d="M102.4 870.4a25.6 25.6 0 0 1 25.6-25.6h768a25.6 25.6 0 1 1 0 51.2H128a25.6 25.6 0 0 1-25.6-25.6zM102.4 960a25.6 25.6 0 0 1 25.6-25.6h768a25.6 25.6 0 1 1 0 51.2H128a25.6 25.6 0 0 1-25.6-25.6z" fill="#9FDFFF" p-id="101615"></path></svg>