<?xml version="1.0" standalone="no"?><!DOCTYPE svg PUBLIC "-//W3C//DTD SVG 1.1//EN" "http://www.w3.org/Graphics/SVG/1.1/DTD/svg11.dtd"><svg t="1732604232577" class="icon" viewBox="0 0 1024 1024" version="1.1" xmlns="http://www.w3.org/2000/svg" p-id="105641" xmlns:xlink="http://www.w3.org/1999/xlink" width="200" height="200"><path d="M307.2 368.64c78.848 0 174.08 63.488 174.08 143.36s-95.232 143.36-174.08 143.36-143.36-64.512-143.36-143.36 64.512-143.36 143.36-143.36m0-61.44c-112.64 0-204.8 92.16-204.8 204.8s92.16 204.8 204.8 204.8 235.52-92.16 235.52-204.8-122.88-204.8-235.52-204.8z" fill="#59C1F7" p-id="105642"></path><path d="M716.8 368.64c78.848 0 143.36 64.512 143.36 143.36s-64.512 143.36-143.36 143.36-174.08-63.488-174.08-143.36 95.232-143.36 174.08-143.36m0-61.44c-112.64 0-235.52 92.16-235.52 204.8s122.88 204.8 235.52 204.8 204.8-92.16 204.8-204.8-92.16-204.8-204.8-204.8z" fill="#59C1F7" p-id="105643"></path><path d="M148.48 209.92m-46.08 0a46.08 46.08 0 1 0 92.16 0 46.08 46.08 0 1 0-92.16 0Z" fill="#59C1F7" p-id="105644"></path><path d="M391.168 209.92m-46.08 0a46.08 46.08 0 1 0 92.16 0 46.08 46.08 0 1 0-92.16 0Z" fill="#59C1F7" p-id="105645"></path><path d="M632.832 209.92m-46.08 0a46.08 46.08 0 1 0 92.16 0 46.08 46.08 0 1 0-92.16 0Z" fill="#59C1F7" p-id="105646"></path><path d="M875.52 209.92m-46.08 0a46.08 46.08 0 1 0 92.16 0 46.08 46.08 0 1 0-92.16 0Z" fill="#59C1F7" p-id="105647"></path><path d="M148.48 814.08m-46.08 0a46.08 46.08 0 1 0 92.16 0 46.08 46.08 0 1 0-92.16 0Z" fill="#59C1F7" p-id="105648"></path><path d="M391.168 814.08m-46.08 0a46.08 46.08 0 1 0 92.16 0 46.08 46.08 0 1 0-92.16 0Z" fill="#59C1F7" p-id="105649"></path><path d="M632.832 814.08m-46.08 0a46.08 46.08 0 1 0 92.16 0 46.08 46.08 0 1 0-92.16 0Z" fill="#59C1F7" p-id="105650"></path><path d="M875.52 814.08m-46.08 0a46.08 46.08 0 1 0 92.16 0 46.08 46.08 0 1 0-92.16 0Z" fill="#59C1F7" p-id="105651"></path></svg>