<?xml version="1.0" standalone="no"?><!DOCTYPE svg PUBLIC "-//W3C//DTD SVG 1.1//EN" "http://www.w3.org/Graphics/SVG/1.1/DTD/svg11.dtd"><svg t="1732604235746" class="icon" viewBox="0 0 1024 1024" version="1.1" xmlns="http://www.w3.org/2000/svg" p-id="105799" xmlns:xlink="http://www.w3.org/1999/xlink" width="200" height="200"><path d="M307.2 368.64c78.848 0 174.08 63.488 174.08 143.36s-95.232 143.36-174.08 143.36-143.36-64.512-143.36-143.36 64.512-143.36 143.36-143.36m0-61.44c-112.64 0-204.8 92.16-204.8 204.8s92.16 204.8 204.8 204.8 235.52-92.16 235.52-204.8-122.88-204.8-235.52-204.8z" fill="#59C1F7" p-id="105800"></path><path d="M716.8 368.64c78.848 0 143.36 64.512 143.36 143.36s-64.512 143.36-143.36 143.36-174.08-63.488-174.08-143.36 95.232-143.36 174.08-143.36m0-61.44c-112.64 0-235.52 92.16-235.52 204.8s122.88 204.8 235.52 204.8 204.8-92.16 204.8-204.8-92.16-204.8-204.8-204.8z" fill="#59C1F7" p-id="105801"></path><path d="M148.48 209.92m-46.08 0a46.08 46.08 0 1 0 92.16 0 46.08 46.08 0 1 0-92.16 0Z" fill="#59C1F7" p-id="105802"></path><path d="M330.752 209.92m-46.08 0a46.08 46.08 0 1 0 92.16 0 46.08 46.08 0 1 0-92.16 0Z" fill="#59C1F7" p-id="105803"></path><path d="M512 209.92m-46.08 0a46.08 46.08 0 1 0 92.16 0 46.08 46.08 0 1 0-92.16 0Z" fill="#59C1F7" p-id="105804"></path><path d="M694.272 209.92m-46.08 0a46.08 46.08 0 1 0 92.16 0 46.08 46.08 0 1 0-92.16 0Z" fill="#59C1F7" p-id="105805"></path><path d="M875.52 209.92m-46.08 0a46.08 46.08 0 1 0 92.16 0 46.08 46.08 0 1 0-92.16 0Z" fill="#59C1F7" p-id="105806"></path><path d="M148.48 814.08m-46.08 0a46.08 46.08 0 1 0 92.16 0 46.08 46.08 0 1 0-92.16 0Z" fill="#59C1F7" p-id="105807"></path><path d="M330.752 814.08m-46.08 0a46.08 46.08 0 1 0 92.16 0 46.08 46.08 0 1 0-92.16 0Z" fill="#59C1F7" p-id="105808"></path><path d="M512 814.08m-46.08 0a46.08 46.08 0 1 0 92.16 0 46.08 46.08 0 1 0-92.16 0Z" fill="#59C1F7" p-id="105809"></path><path d="M694.272 814.08m-46.08 0a46.08 46.08 0 1 0 92.16 0 46.08 46.08 0 1 0-92.16 0Z" fill="#59C1F7" p-id="105810"></path><path d="M875.52 814.08m-46.08 0a46.08 46.08 0 1 0 92.16 0 46.08 46.08 0 1 0-92.16 0Z" fill="#59C1F7" p-id="105811"></path></svg>