<?xml version="1.0" standalone="no"?><!DOCTYPE svg PUBLIC "-//W3C//DTD SVG 1.1//EN" "http://www.w3.org/Graphics/SVG/1.1/DTD/svg11.dtd"><svg t="1732535526120" class="icon" viewBox="0 0 1024 1024" version="1.1" xmlns="http://www.w3.org/2000/svg" p-id="7289" xmlns:xlink="http://www.w3.org/1999/xlink" width="200" height="200"><path d="M512 1024c-213.333333 0-384-170.666667-384-384 0-170.666667 102.4-349.866667 145.066667-418.133333C298.666667 183.466667 418.133333 0 512 0c119.466667 0 384 371.2 384 640C896 853.333333 725.333333 1024 512 1024zM512 85.333333c-59.733333 8.533333-298.666667 315.733333-298.666667 554.666667 0 166.4 132.266667 298.666667 298.666667 298.666667s298.666667-132.266667 298.666667-298.666667C810.666667 401.066667 571.733333 93.866667 512 85.333333z" p-id="7290"></path><path d="M512 853.333333c0 0-4.266667 0-4.266667 0-106.666667-4.266667-200.533333-102.4-209.066667-209.066667 0 0 0-4.266667 0-4.266667 0-25.6 17.066667-42.666667 42.666667-42.666667 21.333333 0 42.666667 17.066667 42.666667 42.666667 0 64 64 128 128 128 21.333333 0 42.666667 21.333333 42.666667 42.666667C554.666667 832 537.6 853.333333 512 853.333333z" p-id="7291"></path></svg>